<svg width="659" height="105" viewBox="0 0 659 105" fill="none" xmlns="http://www.w3.org/2000/svg">
<g clip-path="url(#clip0_1079_1781)">
<path d="M80.4705 63.8018C80.4705 86.1471 58.432 104.255 31.2389 104.255H7.8874C6.27293 104.255 4.95996 103.184 4.95996 101.849V35.6803C4.95996 18.2834 22.2815 3.72099 43.4544 4.05217C63.9659 4.37362 80.4705 18.1373 80.4705 35.0667V63.8018Z" fill="#F5BE43"/>
<path d="M29.0892 51.4798C38.2421 51.4798 45.6619 44.0485 45.6619 34.8815C45.6619 25.7146 38.2421 18.2833 29.0892 18.2833C19.9364 18.2833 12.5166 25.7146 12.5166 34.8815C12.5166 44.0485 19.9364 51.4798 29.0892 51.4798Z" fill="white"/>
<path d="M57.0609 51.4798C66.2137 51.4798 73.6336 44.0485 73.6336 34.8815C73.6336 25.7146 66.2137 18.2833 57.0609 18.2833C47.9081 18.2833 40.4883 25.7146 40.4883 34.8815C40.4883 44.0485 47.9081 51.4798 57.0609 51.4798Z" fill="white"/>
<path d="M57.0611 45.947C63.163 45.947 68.1095 40.9928 68.1095 34.8815C68.1095 28.7702 63.163 23.816 57.0611 23.816C50.9592 23.816 46.0127 28.7702 46.0127 34.8815C46.0127 40.9928 50.9592 45.947 57.0611 45.947Z" fill="#CCCCCC"/>
<path opacity="0.8" d="M57.0607 41.7683C60.8582 41.7683 63.9367 38.685 63.9367 34.8816C63.9367 31.0782 60.8582 27.9949 57.0607 27.9949C53.2631 27.9949 50.1846 31.0782 50.1846 34.8816C50.1846 38.685 53.2631 41.7683 57.0607 41.7683Z" fill="#484C4F"/>
<path d="M59.7453 35.5829C61.9583 35.5829 63.7523 33.7861 63.7523 31.5697C63.7523 29.3533 61.9583 27.5565 59.7453 27.5565C57.5323 27.5565 55.7383 29.3533 55.7383 31.5697C55.7383 33.7861 57.5323 35.5829 59.7453 35.5829Z" fill="white"/>
<path d="M27.8248 45.947C33.9267 45.947 38.8732 40.9928 38.8732 34.8815C38.8732 28.7702 33.9267 23.816 27.8248 23.816C21.7229 23.816 16.7764 28.7702 16.7764 34.8815C16.7764 40.9928 21.7229 45.947 27.8248 45.947Z" fill="#CCCCCC"/>
<path opacity="0.8" d="M27.8253 41.7683C31.6229 41.7683 34.7014 38.685 34.7014 34.8816C34.7014 31.0782 31.6229 27.9949 27.8253 27.9949C24.0277 27.9949 20.9492 31.0782 20.9492 34.8816C20.9492 38.685 24.0277 41.7683 27.8253 41.7683Z" fill="#484C4F"/>
<path d="M30.5002 35.5829C32.7132 35.5829 34.5072 33.7861 34.5072 31.5697C34.5072 29.3533 32.7132 27.5565 30.5002 27.5565C28.2872 27.5565 26.4932 29.3533 26.4932 31.5697C26.4932 33.7861 28.2872 35.5829 30.5002 35.5829Z" fill="white"/>
<path d="M43.2407 60.9381L37.1719 49.5219L43.2407 43.4437L49.3193 49.5219L43.2407 60.9381Z" fill="#484C4F"/>
<path d="M43.2408 31.5697L43.2797 31.5308C43.2797 31.5308 43.2797 31.521 43.3381 31.4528C57.0125 13.6857 61.7781 21.1277 72.243 18.1372C82.2605 15.2735 80.8988 6.76981 79.5372 0.847444C79.4497 0.477296 79.0023 0.360407 78.73 0.623407C69.0821 10.5297 60.5332 9.66281 60.5332 9.66281L43.2506 10.0914L25.968 9.66281C25.968 9.66281 17.0495 10.5784 7.1584 0C5.76762 5.91263 3.74467 15.1371 14.2582 18.1372C24.7231 21.1277 29.5762 13.8026 43.2506 31.5697" fill="#EC8902"/>
<path opacity="0.8" d="M47.355 80.2734C49.1329 80.2734 50.5742 78.0623 50.5742 75.3348C50.5742 72.6073 49.1329 70.3962 47.355 70.3962C45.577 70.3962 44.1357 72.6073 44.1357 75.3348C44.1357 78.0623 45.577 80.2734 47.355 80.2734Z" fill="white"/>
<path opacity="0.8" d="M69.6362 80.3416C71.4141 80.3416 72.8554 78.1305 72.8554 75.403C72.8554 72.6756 71.4141 70.4645 69.6362 70.4645C67.8583 70.4645 66.417 72.6756 66.417 75.403C66.417 78.1305 67.8583 80.3416 69.6362 80.3416Z" fill="white"/>
<path opacity="0.8" d="M59.0932 72.6853C60.8712 72.6853 62.3125 70.4743 62.3125 67.7468C62.3125 65.0193 60.8712 62.8082 59.0932 62.8082C57.3153 62.8082 55.874 65.0193 55.874 67.7468C55.874 70.4743 57.3153 72.6853 59.0932 72.6853Z" fill="white"/>
<path opacity="0.8" d="M58.0337 89.4491C59.8116 89.4491 61.2529 87.2381 61.2529 84.5106C61.2529 81.7831 59.8116 79.572 58.0337 79.572C56.2557 79.572 54.8145 81.7831 54.8145 84.5106C54.8145 87.2381 56.2557 89.4491 58.0337 89.4491Z" fill="white"/>
<path opacity="0.8" d="M47.355 97.6216C49.1329 97.6216 50.5742 95.4105 50.5742 92.6831C50.5742 89.9556 49.1329 87.7445 47.355 87.7445C45.577 87.7445 44.1357 89.9556 44.1357 92.6831C44.1357 95.4105 45.577 97.6216 47.355 97.6216Z" fill="white"/>
<path d="M5.44637 52.4246C5.11569 52.3175 4.79474 52.4344 4.5516 52.6779C1.99373 53.8468 -0.00976562 63.909 -0.00976562 76.1433C-0.00976562 89.1667 2.25633 99.7257 5.04761 99.7257C5.07679 99.7257 5.09624 99.7257 5.12542 99.7257C5.22268 99.7257 5.32966 99.7257 5.43664 99.6964C10.4065 98.1671 18.4399 88.1634 18.4399 76.0654C18.4399 63.9674 10.4065 53.9637 5.43664 52.4344L5.44637 52.4246Z" fill="#EC8902"/>
</g>
<path d="M128.646 59.2231C138.252 59.2231 145.395 54.3798 145.395 46.0877V45.9243C145.395 38.207 139.318 33.3637 128.892 33.3637H109.269V59.2231H128.646ZM105 29.4218H129.139C136.199 29.4218 141.864 31.6393 145.313 35.088C148.022 37.7971 149.664 41.6542 149.664 45.7594V45.9243C149.664 55.5294 142.522 61.0292 132.833 62.3437L151.798 86.8903H146.379L128.071 63.0818H127.906H109.269V86.8903H105V29.4218Z" fill="#484C4F"/>
<path d="M155.241 58.3199V58.1566C155.241 41.8189 167.556 28.4369 185.209 28.4369C196.046 28.4369 202.532 32.049 207.869 37.3038L199.823 46.5806C195.389 42.5571 190.874 40.0945 185.127 40.0945C175.438 40.0945 168.46 48.1401 168.46 57.9917V58.1566C168.46 68.0082 175.274 76.2171 185.127 76.2171C191.695 76.2171 195.718 73.5897 200.233 69.4845L208.281 77.6117C202.368 83.9344 195.799 87.8748 184.715 87.8748C167.803 87.8748 155.241 74.821 155.241 58.3199Z" fill="#484C4F"/>
<path d="M213.449 29.4221H226.093V75.3963H254.747V86.889H213.449V29.4221Z" fill="#484C4F"/>
<path d="M301.374 58.3199V58.1566C301.374 48.305 294.151 40.0945 283.969 40.0945C273.79 40.0945 266.726 48.1401 266.726 57.9917V58.1566C266.726 68.0082 273.953 76.2171 284.134 76.2171C294.314 76.2171 301.374 68.1716 301.374 58.3199ZM253.51 58.3199V58.1566C253.51 41.8189 266.4 28.4369 284.134 28.4369C301.867 28.4369 314.593 41.654 314.593 57.9917V58.1566C314.593 74.4927 301.704 87.8748 283.969 87.8748C266.235 87.8748 253.51 74.6576 253.51 58.3199Z" fill="#484C4F"/>
<path d="M320.908 29.4221H332.568L359.498 64.805V29.4221H371.977V86.889H361.221L333.39 50.3566V86.889H320.908V29.4221Z" fill="#484C4F"/>
<path d="M380.838 29.4221H424.188V40.6699H393.398V52.326H420.493V63.5737H393.398V75.6413H424.598V86.889H380.838V29.4221Z" fill="#484C4F"/>
<g clip-path="url(#clip1_1079_1781)">
<path d="M466.523 86.6857L440.63 22.8641H454.944L474.455 73.1008L494.422 22.8641H508.098L481.84 86.6857H466.523ZM512.91 86.6857V37.1189H525.943V86.6857H512.91ZM519.379 31.2204C517.349 31.2204 515.605 30.491 514.146 29.0322C512.688 27.5734 511.958 25.8293 511.958 23.7997C511.958 21.7066 512.688 19.9624 514.146 18.5671C515.605 17.1083 517.349 16.3789 519.379 16.3789C521.472 16.3789 523.216 17.1083 524.612 18.5671C526.07 19.9624 526.8 21.7066 526.8 23.7997C526.8 25.8293 526.07 27.5734 524.612 29.0322C523.216 30.491 521.472 31.2204 519.379 31.2204ZM560.397 87.6371C555.45 87.6371 550.946 86.4954 546.887 84.2121C542.891 81.9288 539.72 78.8527 537.373 74.9837C535.027 71.1148 533.853 66.7702 533.853 61.9499C533.853 57.1296 534.963 52.7849 537.183 48.916C539.466 45.0471 542.543 41.971 546.412 39.6877C550.28 37.4043 554.593 36.2627 559.35 36.2627C564.107 36.2627 568.325 37.4361 572.004 39.7828C575.682 42.1295 578.568 45.3008 580.661 49.2966C582.818 53.2923 583.896 57.8272 583.896 62.9013V66.3262H547.173C547.743 68.2924 548.663 70.0683 549.932 71.6539C551.264 73.2396 552.881 74.4763 554.784 75.3643C556.75 76.2523 558.843 76.6962 561.063 76.6962C563.283 76.6962 565.312 76.3474 567.152 75.6497C569.054 74.952 570.672 73.9689 572.004 72.7004L580.566 80.5017C577.522 82.9753 574.382 84.7829 571.147 85.9246C567.976 87.0662 564.393 87.6371 560.397 87.6371ZM546.982 57.0027H571.052C570.608 55.0365 569.784 53.3241 568.579 51.8653C567.437 50.3431 566.042 49.1697 564.393 48.3452C562.807 47.4572 561.031 47.0133 559.065 47.0133C557.035 47.0133 555.196 47.4255 553.547 48.25C551.898 49.0746 550.502 50.2479 549.361 51.7701C548.283 53.2289 547.49 54.9731 546.982 57.0027ZM600.371 86.6857L586.766 37.1189H599.134L607.316 69.0852L617.21 37.1189H628.151L637.95 69.1803L646.132 37.1189H658.31L644.61 86.6857H632.147L622.538 55.0048L612.929 86.6857H600.371Z" fill="#F48C15"/>
</g>
<defs>
<clipPath id="clip0_1079_1781">
<rect width="80.4707" height="104.255" fill="white"/>
</clipPath>
<clipPath id="clip1_1079_1781">
<rect width="218.024" height="71.7497" fill="white" transform="translate(440.599 16.1251)"/>
</clipPath>
</defs>
</svg>
